<?xml version="1.0" encoding="UTF-8"?>
<!DOCTYPE svg PUBLIC "-//W3C//DTD SVG 1.1//EN" "http://www.w3.org/Graphics/SVG/1.1/DTD/svg11.dtd">
<svg xmlns="http://www.w3.org/2000/svg" version="1.1" width="500px" height="500px" style="shape-rendering:geometricPrecision; text-rendering:geometricPrecision; image-rendering:optimizeQuality; fill-rule:evenodd; clip-rule:evenodd" xmlns:xlink="http://www.w3.org/1999/xlink">
<g><path style="opacity:1" fill="#fefefe" d="M -0.5,-0.5 C 166.167,-0.5 332.833,-0.5 499.5,-0.5C 499.5,166.167 499.5,332.833 499.5,499.5C 332.833,499.5 166.167,499.5 -0.5,499.5C -0.5,332.833 -0.5,166.167 -0.5,-0.5 Z"/></g>
<g><path style="opacity:1" fill="#040404" d="M 176.5,174.5 C 204.197,174.071 231.863,174.571 259.5,176C 283.971,180.489 302.304,193.489 314.5,215C 306.833,215.667 299.167,215.667 291.5,215C 282.933,197.376 268.933,187.043 249.5,184C 238.5,183.333 227.5,183.333 216.5,184C 215.513,194.418 215.18,204.918 215.5,215.5C 208.833,215.5 202.167,215.5 195.5,215.5C 195.666,208.159 195.5,200.826 195,193.5C 194.385,188.217 191.551,184.717 186.5,183C 183.173,182.39 179.839,181.89 176.5,181.5C 176.5,179.167 176.5,176.833 176.5,174.5 Z"/></g>
<g><path style="opacity:1" fill="#0f0f0f" d="M 156.5,227.5 C 162.206,227.171 167.872,227.505 173.5,228.5C 172.271,229.281 170.938,229.781 169.5,230C 168.941,230.725 168.608,231.558 168.5,232.5C 171.463,241.089 174.963,249.422 179,257.5C 183.619,248.609 186.786,239.276 188.5,229.5C 187.325,229.719 186.325,229.386 185.5,228.5C 189.5,227.167 193.5,227.167 197.5,228.5C 195.253,229.245 193.42,230.578 192,232.5C 187.451,243.99 182.617,255.324 177.5,266.5C 175.854,265.221 174.687,263.555 174,261.5C 170.276,251.719 166.276,242.052 162,232.5C 159.736,231.149 157.902,229.483 156.5,227.5 Z"/></g>
<g><path style="opacity:1" fill="#131313" d="M 215.5,227.5 C 217.411,227.574 218.578,228.574 219,230.5C 223.138,241.247 227.471,251.914 232,262.5C 233.307,263.772 234.807,264.772 236.5,265.5C 231.167,266.833 225.833,266.833 220.5,265.5C 221.689,264.571 223.022,264.238 224.5,264.5C 224.667,260.33 224,256.33 222.5,252.5C 217.456,252.173 212.456,252.506 207.5,253.5C 205.906,256.991 205.239,260.658 205.5,264.5C 206.675,264.281 207.675,264.614 208.5,265.5C 204.5,266.833 200.5,266.833 196.5,265.5C 198.193,264.772 199.693,263.772 201,262.5C 205.849,250.808 210.682,239.141 215.5,227.5 Z"/></g>
<g><path style="opacity:1" fill="#0f0f0f" d="M 269.5,255.5 C 269.56,256.043 269.893,256.376 270.5,256.5C 271.821,248.009 271.821,239.676 270.5,231.5C 269.517,230.15 268.184,229.15 266.5,228.5C 270.833,227.167 275.167,227.167 279.5,228.5C 276.795,229.204 275.129,230.871 274.5,233.5C 273.505,244.321 273.172,255.321 273.5,266.5C 272.5,266.5 271.5,266.5 270.5,266.5C 263.161,255.838 255.328,245.504 247,235.5C 246.333,244.167 246.333,252.833 247,261.5C 247.791,263.604 249.291,264.937 251.5,265.5C 247.167,266.833 242.833,266.833 238.5,265.5C 240.193,264.772 241.693,263.772 243,262.5C 243.832,251.818 243.666,241.151 242.5,230.5C 241.069,230.023 239.736,229.357 238.5,228.5C 242.167,227.167 245.833,227.167 249.5,228.5C 256.191,237.518 262.858,246.518 269.5,255.5 Z"/></g>
<g><path style="opacity:1" fill="#060606" d="M 284.5,227.5 C 289.544,227.173 294.544,227.506 299.5,228.5C 297.291,229.063 295.791,230.396 295,232.5C 294.333,242.167 294.333,251.833 295,261.5C 296.087,263.752 297.921,265.085 300.5,265.5C 295.167,266.833 289.833,266.833 284.5,265.5C 286.193,264.772 287.693,263.772 289,262.5C 289.667,252.167 289.667,241.833 289,231.5C 287.141,230.421 285.641,229.088 284.5,227.5 Z"/></g>
<g><path style="opacity:1" fill="#121212" d="M 320.5,227.5 C 321.675,227.281 322.675,227.614 323.5,228.5C 328.236,239.874 333.069,251.208 338,262.5C 339.307,263.772 340.807,264.772 342.5,265.5C 337.167,266.833 331.833,266.833 326.5,265.5C 330.915,263.3 331.749,259.967 329,255.5C 328.626,254.584 328.126,253.75 327.5,253C 322.798,252.172 318.131,252.338 313.5,253.5C 311.517,256.603 310.684,259.936 311,263.5C 312.205,264.071 313.372,264.738 314.5,265.5C 310.5,266.833 306.5,266.833 302.5,265.5C 304.889,264.398 306.723,262.731 308,260.5C 312.472,249.581 316.638,238.581 320.5,227.5 Z"/></g>
<g><path style="opacity:1" fill="#f0f0f0" d="M 214.5,235.5 C 216.857,239.527 218.857,243.86 220.5,248.5C 216.833,249.833 213.167,249.833 209.5,248.5C 211.37,244.221 213.036,239.888 214.5,235.5 Z"/></g>
<g><path style="opacity:1" fill="#9f9f9f" d="M 270.5,231.5 C 271.821,239.676 271.821,248.009 270.5,256.5C 269.893,256.376 269.56,256.043 269.5,255.5C 270.492,247.684 270.826,239.684 270.5,231.5 Z"/></g>
<g><path style="opacity:1" fill="#595959" d="M 274.5,233.5 C 274.5,244.833 274.5,256.167 274.5,267.5C 272.901,267.768 271.568,267.434 270.5,266.5C 271.5,266.5 272.5,266.5 273.5,266.5C 273.172,255.321 273.505,244.321 274.5,233.5 Z"/></g>
<g><path style="opacity:1" fill="#f1f1f1" d="M 320.5,235.5 C 322.87,239.748 324.87,244.248 326.5,249C 322.848,249.499 319.182,249.665 315.5,249.5C 316.77,244.688 318.437,240.022 320.5,235.5 Z"/></g>
<g><path style="opacity:1" fill="#040404" d="M 195.5,283.5 C 202.167,283.5 208.833,283.5 215.5,283.5C 212.955,299.603 219.622,309.103 235.5,312C 251.559,313.652 266.226,309.985 279.5,301C 284.467,296.2 288.467,290.7 291.5,284.5C 299.167,283.167 306.833,283.167 314.5,284.5C 303.169,304.19 286.169,316.023 263.5,320C 233.196,321.435 202.863,321.935 172.5,321.5C 172.5,319.167 172.5,316.833 172.5,314.5C 180.49,315.266 187.323,312.932 193,307.5C 195.157,299.675 195.991,291.675 195.5,283.5 Z"/></g>
</svg>
