<?xml version="1.0" standalone="no"?>
<!DOCTYPE svg PUBLIC "-//W3C//DTD SVG 20010904//EN"
 "http://www.w3.org/TR/2001/REC-SVG-20010904/DTD/svg10.dtd">
<svg version="1.0" xmlns="http://www.w3.org/2000/svg"
 width="380.000000pt" height="380.000000pt" viewBox="0 0 380.000000 380.000000"
 preserveAspectRatio="xMidYMid meet">

<g transform="translate(0.000000,380.000000) scale(0.100000,-0.100000)"
fill="#000000" stroke="none">
<path d="M2627 3059 c-41 -78 -395 -761 -787 -1519 -171 -331 -229 -440 -234
-440 -2 0 -124 208 -272 463 -147 254 -271 467 -277 472 -5 6 111 -230 257
-522 202 -405 270 -533 284 -533 34 0 465 79 473 87 4 4 143 269 309 588 166
319 357 686 425 815 67 129 134 258 148 286 l26 52 -130 143 c-72 79 -141 155
-154 168 l-23 23 -45 -83z"/>
<path d="M1888 2449 c-112 -204 -208 -371 -213 -371 -5 0 -25 28 -45 63 l-36
64 -149 38 c-83 20 -155 36 -162 35 -7 -2 53 -120 140 -275 83 -150 155 -269
158 -265 4 4 91 185 194 402 103 217 218 459 256 538 37 78 66 142 64 142 -2
0 -95 -167 -207 -371z"/>
</g>
</svg>
